<?xml version="1.0" encoding="utf-8"?>
<!-- Generator: Adobe Illustrator 27.9.0, SVG Export Plug-In . SVG Version: 6.00 Build 0)  -->
<svg version="1.1" id="darkroom" xmlns="http://www.w3.org/2000/svg" xmlns:xlink="http://www.w3.org/1999/xlink" x="0px" y="0px"
	 viewBox="0 0 144.6 29.4" style="enable-background:new 0 0 144.6 29.4;" xml:space="preserve">
<style type="text/css">
	.st0{stroke:#000000;stroke-width:3;stroke-miterlimit:10;}
	.st1{font-family:'MyriadPro-Regular';}
	.st2{font-size:25px;}
	.st3{letter-spacing:1;}
	.st4{font-family:'TwCenMT-Regular';}
	.st5{font-size:27px;}
</style>
<path class="st0" d="M11.6,3.7l-9.9,9.6c0,0-0.1,0-0.2,0h0c0,0,0-0.1,0-0.2l9.9-9.6c0,0,0.1,0,0.2,0l0,0C11.6,3.6,11.6,3.7,11.6,3.7
	z"/>
<path class="st0" d="M19.8,12.1l-9.9,9.6c0,0-0.1,0-0.2,0h0c0,0,0-0.1,0-0.2l9.9-9.6c0,0,0.1,0,0.2,0l0,0
	C19.8,12,19.8,12.1,19.8,12.1z"/>
<path class="st0" d="M19.1,4.3L2.8,20.2c-0.1,0.1-0.1,0.2,0,0.3l0,0c0.1,0.1,0.2,0.1,0.3,0L19.4,4.7c0.1-0.1,0.1-0.2,0-0.3l0,0
	C19.3,4.2,19.2,4.2,19.1,4.3z"/>
<text transform="matrix(1 0 0 1 27.6211 21.8964)"><tspan x="0" y="0" class="st1 st2 st3">d</tspan><tspan x="15.5" y="0" class="st4 st5 st3">a</tspan><tspan x="31.9" y="0" class="st1 st2 st3">rkroom</tspan></text>
</svg>
