<?xml version="1.0" encoding="UTF-8"?><svg id="Layer_1" xmlns="http://www.w3.org/2000/svg" width="187.4" height="202.5" viewBox="0 0 187.4 202.5"><defs><style>.cls-1{fill:#595959;stroke:#595959;stroke-miterlimit:10;}.cls-2{fill:#5b5b5b;stroke-width:0px;}</style></defs><path class="cls-1" d="m96.4,84.2h62c.2,0,.4,0,.6,0,2.4.3,18,3.2,25.4,19.3,1.6,3.5,2.4,7.3,2.4,11.1l.2,25.8c0,1.1-.2,2.2-.5,3.3-1.5,4.9-7.1,14.1-17.9,22.2-.1,0-.3.2-.4.3l-52.8,30.9c-1.7,1-3.5,1.8-5.3,2.4-7,2.4-23.2,5.8-41.7-4.7-.1,0-.3-.2-.4-.3l-47.5-34.5c-.1,0-.2-.1-.3-.2-1-.9-7.7-6.9-16.6-19.1-.7-1-.1-3.2,1-5.4,4.3-8,12.1-13.5,21.1-15.3l6.4-1.2c1.3-.3,2.6.2,3.6,1.1l40.7,40.4c.2.2.4.4.7.5,2.6,1.7,18.3,10.8,33.4,0,0,0,.2-.1.2-.2l40.3-23.9c1.2-.7,2-2,2-3.5v-10.6c0-2.2-1.8-4-4-4h-30c-.2,0-.5,0-.7,0-3-.5-23.3-5.1-25.9-30-.2-2.4,1.6-4.4,4-4.4Z"/><path class="cls-2" d="m184.1,67.4c.5,0,.8-.4.8-.9-.5-4-3.9-20.4-25.1-33.6L116.6,8s0,0,0,0c-1-.8-22.5-17.4-49.3,0L12.1,40.3S2,45.8,0,60.4c0,0,0,0,0,.1l1.4,69.7c0,1.3,1.1,3.4,1.6,2.2,3-7.4,10.9-18.2,28.2-19.1.4,0,.7-.4.7-.8l.7-44.7c0-.3.2-.5.4-.7l40.2-23.5c.7-.4,1.3-.8,2-1.2,3.1-2.2,16.3-10.2,33.5,0l42.1,24.9c.1,0,.3.1.4.1h32.8Z"/></svg>