<?xml version="1.0" encoding="UTF-8"?><svg xmlns="http://www.w3.org/2000/svg" viewBox="0 0 373.7 403.7"><defs><style>.cls-1{fill:#383b53;stroke-width:0px;}</style></defs><g id="lower"><path class="cls-1" d="m13.3,281.8c-1.2-2.1-2.3-5.5,0-9.9,8.5-15.9,24-26.8,41.7-30.2l14.5-2.8c1.4-.3,2.8.2,3.9,1.2l75.9,75.3c6.8,6.8,15.2,11.9,24.4,14.6,12.9,3.8,31.1,5,49-7.9,0,0,.2-.1.2-.2l81.6-48.3c1.3-.8,2.1-2.2,2.1-3.7v-26.7c0-2.4-1.9-4.3-4.3-4.3h-63.2c-.2,0-.5,0-.7,0-4.6-.8-48.5-9.4-51.9-63.4-.2-2.5,1.8-4.6,4.3-4.6h126.5c.4,0,.8,0,1.1,0,4.7.7,38.5,15,48.1,39s7.2,34.3,7.3,42.1v30.1s0,0,0,.1c0,.5-.4,4.7-1,6.4-2.3,6.9-14.1,28-35.5,43.9-.1.1-.3.2-.5.3l-105,61.4c-2.8,1.6-5.7,3-8.8,4.1-12.7,4.5-44.3,12-80.9-7.3-1.9-1-3.7-2.2-5.7-3.2l-81.5-69"/></g><g id="upper"><path class="cls-1" d="m363.9,133.2c.9,0,1.7-.8,1.5-1.8-1-7.8-7.8-40.3-49.7-66.4L230.5,15.8c0,0-.1,0-.2-.1-2-1.6-44.5-34.5-97.4,0L23.9,79.6S3.9,90.5,0,119.5c0,0,0,.2,0,.3l2.8,137.8c0,2.7,2.2,6.8,3.2,4.3,5.9-14.6,21.6-36,55.8-37.8.8,0,1.5-.7,1.5-1.5l1.4-88.4c0-.5.3-1,.8-1.3l79.5-46.5c1.3-.7,2.6-1.5,3.9-2.4,6-4.3,32.3-20.2,66.2-.1l83.2,49.2c.2.1.5.2.8.2h64.9Z"/></g></svg>